<svg xmlns="http://www.w3.org/2000/svg" viewBox="0 0 338.03 76.21"><defs><style>.cls-1{isolation:isolate;}.cls-2{fill-rule:evenodd;}</style></defs><title>Alistair_Shaw_sign</title><g id="Shape_1" data-name="Shape 1" class="cls-1"><g id="Shape_1-2" data-name="Shape 1"><path class="cls-2" d="M334.82,81.13C235,53,119.91,89,119.91,89c-.91.82-1.66,1.28-1.39,2.27a3.25,3.25,0,0,0,1.31,1.9C279.16,52.86,325.71,84,333,83.78,336.68,83.66,334.82,81.13,334.82,81.13Z" transform="translate(-10.59 -16.92)"/></g></g><g id="Shape_2" data-name="Shape 2" class="cls-1"><g id="Shape_2-2" data-name="Shape 2"><path class="cls-2" d="M106.63,68.18a9.8,9.8,0,0,1-5-.36,12.24,12.24,0,0,1-5.4-5l-.79-1.87c-.13-.39-.08-.84-.29-1.15,0-1,1.45-1.93,1.94-2.59,1.48-2,3.06-3.93,4.39-6a95,95,0,0,0,7.06-14.76,56.82,56.82,0,0,0,1.73-6c.88-3.11,1.56-9.29-.22-11.74-.81-1.12-3-1.69-5-1.66-.51.33-1.25.26-1.73.58a16.92,16.92,0,0,0-3.46,3.24c-.29.39-.79.69-1.08,1.08-.78,1-1.61,2.07-2.3,3.17A48.32,48.32,0,0,0,91.3,37.66c-1,3.46-1.06,7.69-1.87,11.3a3,3,0,0,0,.36,1.66v2.16c.32,1.42.37,2.91.72,4.18a50.66,50.66,0,0,0,1.73,6.26,12.2,12.2,0,0,0,4.68,5.26,9.38,9.38,0,0,0,2.38,1l1.22.14c.29.11.53.41.79.5,1.79.65,6.27,0,7.56-.58.1-.36.28-1,0-1.37S107.23,68.05,106.63,68.18ZM94.75,55.8a.85.85,0,0,1-.36-.14c-.86-.32-.65-1.85-.65-3a31.65,31.65,0,0,1,.36-6.12l.14-2.09c.48-2,.45-4.16,1-6.12C96.63,33.43,98,28,100.37,24.12c.72-1.16,1.56-2.24,2.38-3.31.61-.8,1.56-1.35,2.23-2.09l1.22.07a4.55,4.55,0,0,1,.86.94,9.44,9.44,0,0,1,.36,1.94,17.64,17.64,0,0,1-.36,6.62c-.21.87-.13,1.61-.36,2.45-.49,1.79-.79,3.6-1.37,5.33a73.93,73.93,0,0,1-4.39,10.66c-.54,1-.9,2.12-1.51,3.1-1,1.68-2.41,3.24-3.6,4.82C95.52,55.06,95,55.36,94.75,55.8ZM318.24,66.67a10,10,0,0,0-2.09.36c-.47.11-1,.05-1.44.14a3.8,3.8,0,0,1-1.3-.07c-.61-.13-1.11,0-1.66-.14-1.4-.43-1.89-1.57-2.23-3.1V59.4c-.17-.53-.69-.94-.86-1.51-1-.23-1.92-.55-3-.79a12,12,0,0,0-5,.58c-4.15,1.33-7.11,3.57-6.84,9.07a19.62,19.62,0,0,0-2.3.36,4.69,4.69,0,0,1-1.58-.07h-.65c-1.38-.44-1.21-1.72-1.66-3.1a13.54,13.54,0,0,0-.65-1.51c-2.51-.49-4,.92-5.26,2.16l-.65.79c-.27.2-.67.23-.94.43a2.36,2.36,0,0,1-.65-.14,16.23,16.23,0,0,1,0-4.54c.08-.39-.1-.94.07-1.22.06-.64,1.47-1.37,1.94-1.73,1.67-1.24,3.21-2.73,4.75-4.1a19.52,19.52,0,0,0,2.52-2.74c.27-.36.73-.64,1-1,1-1.33,2.13-2.62,3-4a52.36,52.36,0,0,0,5.9-13.82c1.33-4.7,0-11.4-3.46-12.82-1.51-.62-6-.75-7.49,0A12.87,12.87,0,0,0,284,22.9c-.23.31-.63.55-.86.86-.55.74-1.1,1.53-1.58,2.3a42.1,42.1,0,0,0-2.3,5.26,33.83,33.83,0,0,0-1.51,3.24c-.16.5,0,1-.14,1.58s-.57,1.46-.79,2.16L276,41.83l-.14,1.87c-.36,1.59-.33,3.44-.65,5a15.84,15.84,0,0,0,.22,2.66,11.79,11.79,0,0,1-.07,3.24v1.22c-.26,1.16-.28,2.48-.58,3.53a7.22,7.22,0,0,1-.65,2.3v.07c-.25-.36-.16-1-.29-1.44a21.39,21.39,0,0,0-.86-2.88c-.12-.26-.39-.52-.5-.79a12.79,12.79,0,0,0-.65-1.73A14.09,14.09,0,0,0,268,51c-.58-.44-1.06-1.09-1.66-1.51-1.16-.83-2.67-1.15-3.89-1.94a23.4,23.4,0,0,0-3.31-2,23.24,23.24,0,0,1-2.81-1.22c-1.61-1-3.35-1.9-5-2.88-.57-.35-1.16-.52-1.73-.86a18.07,18.07,0,0,1-5.18-4.32,8,8,0,0,1-.94-1.44,3.37,3.37,0,0,1,.86-3.6l.43-.14c2.74-1.68,8.3-1.56,10.73.29,0,.17,0,.2-.07.29a2.16,2.16,0,0,1-1.37.07,13.43,13.43,0,0,0-3.31-.65,4.5,4.5,0,0,0-.86.86,4,4,0,0,0-.43.86,1.24,1.24,0,0,0,.07.58,2.76,2.76,0,0,0,.29,1.22c.52.78,2.93,1.2,4,1.58a12.74,12.74,0,0,0,3.31.86,4.51,4.51,0,0,0,1.51-.65,4.34,4.34,0,0,0,1-1.66c.74-1.41,1.94-3.53.65-5.33-.38-.53-1-.58-1.58-.94-.19-.12-.38-.38-.58-.5a12.77,12.77,0,0,0-2.81-1.08c-.67-.23-1.41-.61-2.09-.79l-.94.07A3.49,3.49,0,0,0,250.7,26h-1.15c-.57.13-1.21.12-1.8.29a9.55,9.55,0,0,0-5.83,4.25c-.21.29-.53.55-.72.86a7.36,7.36,0,0,0-.5,4.75,15.7,15.7,0,0,0,.72,2.59,7.12,7.12,0,0,0,.94,1.15,17,17,0,0,0,4.54,4c.6.38,1.25.56,1.87.94,2.17,1.32,4.42,2.34,6.77,3.53.44.22.79.67,1.22.86A37.43,37.43,0,0,1,261,51c.83.51,1.67,1.08,2.45,1.66.35.26.63.7,1,.94a12.67,12.67,0,0,1,5.62,6.77,9,9,0,0,1,.43,4.46c-.19.91,0,1.69-.22,2.45a17.89,17.89,0,0,1-2.88,5.18c-.21.29-.58.51-.79.79a5.54,5.54,0,0,1-.72.94,23.1,23.1,0,0,1-2.74,1.66,35.4,35.4,0,0,1-9.07,3.82l-2.16.22a8.86,8.86,0,0,1-3.17.07c-.9-.19-1.69,0-2.52-.14a36.28,36.28,0,0,1-5.4-1.44,15.85,15.85,0,0,1-2.23-.86c-.84-.5-1.58-1.3-2.38-1.87a13.19,13.19,0,0,1-3-2.52,19.43,19.43,0,0,1-2.81-5.9c-.25-.91-.08-2.08-.29-3a3.13,3.13,0,0,1,.58-2.52c.52-.44,2-.85,1.15-2-.23-.35-.52-.34-.86-.58-1.05,0-1.13.4-1.66.86a5.84,5.84,0,0,0-1.08,1c-.55.84-.51,2.07-.79,3.17-1.37,5.42,1.28,10.85,3.82,13.39,3.41,3.41,6.71,4.9,12,6.41a20,20,0,0,0,7.27.07L252.5,84c.81-.19,1.66-.29,2.38-.5a38.27,38.27,0,0,0,4-1.22,26.85,26.85,0,0,0,11.23-8.57,23.73,23.73,0,0,0,3.17-5,22.29,22.29,0,0,0,.36-2.23,10.51,10.51,0,0,0,.58-2.38h.07c.66,1.42.23,3.38,1.58,4.18,1.71,1,4.3-.08,5.47-.79.37-.23,1.18-.83,1.94-.58.56.19,1.16.76,1.73,1a19.19,19.19,0,0,0,3.46.86,14.35,14.35,0,0,0,4.9-.43c.32-.09.93-.48,1.37-.36.23.06.56.34.79.43a13.81,13.81,0,0,0,2.16.5,6.45,6.45,0,0,0,2.16-.07c.69-.15,1.23,0,1.87-.22,1.11-.31,2.22-.76,3.31-1a5.6,5.6,0,0,0,1.94.94c2.79,1.15,8.54,1.23,11.3-.07a3.73,3.73,0,0,0,.14-1.44A1.27,1.27,0,0,1,318.24,66.67ZM279.07,52.49q0-1.33.07-2.66c.4-1.83.31-3.88.72-5.62l.79-6.19a79.17,79.17,0,0,1,3.46-9.43c.2-.48.23-.9.43-1.37a18.09,18.09,0,0,1,2.23-3.6,10.63,10.63,0,0,1,3.67-2.74c.31-.11.75,0,1-.14a4.22,4.22,0,0,1,2,.29c.87.52,1,1.68,1.37,2.74a17.16,17.16,0,0,1,.22,8.93,63.78,63.78,0,0,1-2.66,7.63,24.87,24.87,0,0,1-1.15,3c-.48.79-1.25,1.49-1.8,2.23-1.5,2-3,4-4.54,6a37.8,37.8,0,0,1-3.67,4,9.8,9.8,0,0,0-1.44,1.3,1.46,1.46,0,0,1-.65-.22A13.52,13.52,0,0,1,279.07,52.49Zm26,9.07a4.9,4.9,0,0,0-1.3,1l-.22.79c-.63,1.54-1.13,3.54-3.38,3.24a2.12,2.12,0,0,1-.94-.29,2.49,2.49,0,0,1-.72-2.3,7,7,0,0,1,2.3-4c.48-.34,1.11-.5,1.58-.86,1.36,0,2.85.21,3.17,1.22a.76.76,0,0,1,.07.43C305.42,61,305.32,61.37,305.06,61.56ZM81.94,61.2c0-2.33-.09-4.94-.07-7.2a21.4,21.4,0,0,1,.07-3.82V48.24c.19-1.25,0-2.76.29-4l.07-1.87c.39-1.78.31-3.78.72-5.47l.29-2.09c.33-1.28.62-2.7,1-3.89.15-.45.41-1.37.07-1.8a1.12,1.12,0,0,0-1.37-.5,17.47,17.47,0,0,0-2.66,1,55.29,55.29,0,0,0-10.15,6c-2.17,1.56-4,3.51-6.12,5.11-1.08.82-1.92,2-3,2.81l-1,1.08c-1,.73-1.7,1.65-2.66,2.38l-.94,1a19,19,0,0,1-1.87,1.66l-1.66,1.73A18.15,18.15,0,0,0,51.12,53l-.72.79c-2.18,1.65-3.94,3.83-6.12,5.47-1.92,1.45-3.71,3.08-5.69,4.46-2.18,1.53-4.53,2.84-6.84,4.25a29.42,29.42,0,0,1-3.53,1.66c-1.11.49-2.31,1.11-3.46,1.58a69.41,69.41,0,0,1-7.85,2.52,11,11,0,0,1-3.17.29c-.33-.14-.56-.64-1.3-.43s-2.55,1.62-1.58,2.74c.48,1.36,4.43,1.12,6,.72a85.62,85.62,0,0,0,10.8-3.24A31.88,31.88,0,0,0,32.18,72c1.8-1.09,3.63-2.12,5.33-3.31a63.25,63.25,0,0,0,8.14-7.13c.81-.81,1.58-1.63,2.38-2.45L49.18,58c.6-.8,1.34-1.43,1.94-2.23l1-.94a51.89,51.89,0,0,1,4.75-5,42.49,42.49,0,0,1,4.32-4.18l.94-1c1.22-.92,2.18-2.18,3.38-3.1,2.64-2,5-4.41,7.7-6.34,1.54-1.08,3.13-2.11,4.75-3.1a19.75,19.75,0,0,0,2.59-1.3h.07l-.79,3.89c-.26,1.1-.2,2.26-.43,3.31-.38,1.66-.07,3.48-.43,5.11v1.22a19.2,19.2,0,0,0-.22,3.6v1.51c-.19.88.14,2.12-.07,3.1a16.77,16.77,0,0,0-.07,3.1v5.9a17,17,0,0,0-2.74.36c-1.26.28-2.57.17-3.74.43l-3.82.36c-.89.3-1.19,1.14-1.73,1.8l.07.79c.29.54,2.72,1.5,3.38,1.94a40.51,40.51,0,0,1,8.42,7.78c.58.68,1.45,2.53,2.09,3a1.5,1.5,0,0,0,1,.14,2.74,2.74,0,0,0,1.66-2.74A56.58,56.58,0,0,1,82,63.29a11.61,11.61,0,0,0,3.1-.86c.62-.2,1.17-.09,1.87-.29a6.71,6.71,0,0,0,1.73-.94c0-.12,0-.07.07-.14V60.7C86.69,60.29,84.11,61.12,81.94,61.2Zm-2.88,8.86c-.79-.53-1.27-1.45-2-2s-1.27-1.16-1.94-1.66a10.32,10.32,0,0,1-1.37-1c-.08-.07,0,0-.07-.07,1.69-.38,3.13-1.12,4.9-1.3.15,1.31.09,2.86.36,4.1.11.49-.09,1.14.14,1.51Zm118-31.39c.83-.22,1.51-.71,2.23-.94,0-1.26-.89-1.48-1.22-2.38a10.06,10.06,0,0,1-.14-1.3,13.93,13.93,0,0,0-.58-2.38,1.58,1.58,0,0,0-.72-.14c-.19.12-.47.06-.72.14l-1,.5c-1.75,1.22-3.23,4-1.66,6.41A12,12,0,0,0,197.06,38.66Zm-78,1.87c.82-.22,1.51-.71,2.23-.94,0-1.26-.89-1.48-1.22-2.38a10.07,10.07,0,0,1-.14-1.3,13.93,13.93,0,0,0-.58-2.38,1.58,1.58,0,0,0-.72-.14c-.19.12-.47.06-.72.14l-1,.5c-1.75,1.22-3.23,4-1.66,6.41A12,12,0,0,0,119.09,40.54Zm69.34,26.14a10,10,0,0,0-2.09.36c-.47.11-1,.05-1.44.14a3.8,3.8,0,0,1-1.3-.07c-.61-.13-1.11,0-1.66-.14-1.41-.43-1.89-1.57-2.23-3.1V59.4c-.17-.53-.69-.94-.86-1.51-1-.23-1.92-.55-3-.79a10.23,10.23,0,0,0-3.82.29c-3.29.86-5.11,1.62-6.77,4.1-.74,1.11-1.85,3.41-1.15,5.4a15,15,0,0,1-4.32,2.3,7,7,0,0,1-4.25-.43c-3-1.33-4.66-5.49-3.67-10.08.36-1.65.1-3.12.86-4.32a21.47,21.47,0,0,1,2.52-.22c1-.21,2.11.09,3.17-.14a17.71,17.71,0,0,1,3.38-.14h2.66a16.1,16.1,0,0,1,3-.07,17,17,0,0,1,3.1.07c1.39.3,3.1-.21,4.39.07h3.17c.77.17,1.88-.12,2.74.07.7.15,1.73-.1,2.52.07.63.14,1.58-.09,2.3.07s1.58-.08,2.3.07c1.51.33,3.44,0,4.9.29l1.58.07c2.07.46,4.45.26,6.48.72.82.18,2.27,0,2.88.36h.14c0-1.44-1.1-1.49-2.09-1.87a23.89,23.89,0,0,0-3-.79c-1-.24-2.09-.08-3-.29l-2.38-.14c-1.91-.43-4.22-.07-6.19-.5-.45-.1-1.08,0-1.44-.07H184a20.52,20.52,0,0,0-3.89-.14h-1.37a24.46,24.46,0,0,0-4.68-.07H156.67a12.38,12.38,0,0,1-3-.07l-.22-.07a4.05,4.05,0,0,1,.36-2.16c.09-.13.29-.27.36-.43.33-.76.55-1.64.79-2.38.48-1.43.74-2.94,1.15-4.39.19-.68.16-1.38.36-2-.68-.54-.84-1-2.16-1-.19.16-.5.23-.65.43l-1,3.17c-.81,2-1.63,4-2.45,6-.45,1.09-.52,2.87-1.66,3.24h-11.3c-.21-.06-.56-.3-.79-.36l-1.44.07-.22.29h-2.38a21.39,21.39,0,0,1-4-.22c-.92-.2-2,0-2.88-.22-1.1-.24-2.11,0-3.17-.29-.59-.14-1.59,0-2.23-.22-1.32-.4-3.66-2.12-5.33-1.44a4.81,4.81,0,0,0-1.66,1.44c0,1,.59,1.21,1,1.8l4.39.79,4.9.5,3,.14a4.21,4.21,0,0,1,1.51.07h4.75c-.25.68-1,1.05-1.37,1.66-.56,1-.83,3.88-.14,4.9.41.61,1.35.85,1.94,1.3.23.17.3.51.5.72-.09,1-1,1.59-1.51,2.23s-.91,1-1.3,1.58c-.11.16-.13.4-.29.5a15.19,15.19,0,0,1-3.38.94c-4.69,1.3-10.75.28-13-2.66-1.5-2-2.14-4.16-.65-6.62.26-.43.34-.93.72-1.22a.76.76,0,0,0-.14-.36c-1.7-.39-2,.15-3.17.86l-1.22.5c-.89,0-1,1-1.37,1.51-1.46,2.35-.89,4.54.5,6.55.46.67,2.5,1.57,3.38,1.94a31.05,31.05,0,0,0,4.82,1.44c.91.22,1.76,0,2.74.22a12,12,0,0,0,3.89,0c.72-.15,1.47,0,2.09-.14l2.81-.22a10,10,0,0,0,3.17-1.37c.09-.16,0-.2,0-.43A13.09,13.09,0,0,0,134,66.82l.94-1c.53-.36,1.27-.44,1.73-.86.44.08.57.37.86.58,1,.71,2,1.45,3,2.16.42.3,1.09.57,1.37,1,.57.9-.33,2.81-.94,3-.8.54-2.12-.44-2.66-.72a3.24,3.24,0,0,0-3.74.07c-.1.4-.43,1.2-.07,1.58.25.71,1.62.79,2.3,1.08a17.84,17.84,0,0,0,2.74.94,3.92,3.92,0,0,0,2.16-.29,6.08,6.08,0,0,0,3.74-3.74,4.69,4.69,0,0,0-.94-3.89,13,13,0,0,0-3.1-3.1c-.52-.4-.95-1-1.44-1.44s-1.27-.79-1.58-1.51c-.56-1.27.15-3,.5-4.18.11-.37.46-1.51.14-2v-.07a3.05,3.05,0,0,0,1.22-.07h5.4c1.23,0,2-.15,2.74.36a18.57,18.57,0,0,1-.5,3.53c-.22.94,0,1.81-.22,2.81a6.39,6.39,0,0,0,0,2.45,12.64,12.64,0,0,0,.65,1.3,15.38,15.38,0,0,0,1,2.59c1.4,2.11,4.2,3.4,7,4.1a12.31,12.31,0,0,0,2.88-.43,18.67,18.67,0,0,0,3-.58,7.08,7.08,0,0,0,2.74-1.87c.12-.17.15-.36.29-.5s1,.32,1.3.43a9.46,9.46,0,0,0,3.67.29c1-.22,2.06-.27,3-.58l2.16-.72a5.6,5.6,0,0,0,1.94.94c2.79,1.15,8.54,1.23,11.3-.07a3.73,3.73,0,0,0,.14-1.44A1.3,1.3,0,0,1,188.42,66.67Zm-13.18-5.11a4.87,4.87,0,0,0-1.3,1l-.22.79c-.63,1.54-1.13,3.54-3.38,3.24a2.12,2.12,0,0,1-.94-.29,2.49,2.49,0,0,1-.72-2.3,7,7,0,0,1,2.3-4c.48-.34,1.11-.5,1.58-.86,1.36,0,2.85.21,3.17,1.22a.76.76,0,0,1,.07.43C175.6,61,175.5,61.37,175.25,61.56ZM223,67a2.64,2.64,0,0,1-1.3-1.51c-.51-1.42.05-3.36.14-4.82,0-.61.19-1.52-.14-1.94-.33-.92-1.93-1.08-3-.65-.22.09-.49.35-.72.43a3,3,0,0,1-1.22.07c-1.06-1.16-.16-1.23-.5-2.74s-.86-2.48-2.45-2.66c-.35.23-.83.21-1.15.43a4.87,4.87,0,0,0-1.73,5c.24.8.9,1.32,1.15,2,.15.36-.39.94-.58,1.22a9.34,9.34,0,0,1-2.59,2.66,13.69,13.69,0,0,1-4.18,2c-4.08,1.16-9.74,0-11.88-2.09-1-1-2.86-3.28-2.23-5.47a8.12,8.12,0,0,1,.86-1.87c.26-.43.34-.93.72-1.22a.76.76,0,0,0-.14-.36c-1.7-.39-2,.15-3.17.86l-1.22.5c-.89,0-1,1-1.37,1.51-1.46,2.35-.89,4.54.5,6.55.59.85,3,1.76,4.1,2.23a28.53,28.53,0,0,0,14.54,1.08l1.44-.14a15.3,15.3,0,0,0,4.68-2.59,6.31,6.31,0,0,0,2.38-3c1.62,0,2.88-.62,4.18-.58l.43.36a6.85,6.85,0,0,1-.22,2.38c-.41,1.87.4,4.67,1.44,5.26a5.47,5.47,0,0,0,1.44.29,4.15,4.15,0,0,0,2.3-.14c.42-.23,2-2,1.8-2.74S223.82,67.31,223,67Zm119.09-5.76c-1.08-.1-2.05-.46-3,.14-1.13.76-1.42,3.35-2.66,3.82a1.73,1.73,0,0,1-.79.07c-.21-.21-.54-.33-.72-.58a7.48,7.48,0,0,0-.79-1.22c-.15-.14-.52-.14-.65-.29l-.22-.65a3.53,3.53,0,0,0-1.8-1.15,4.08,4.08,0,0,0-2.23-.36c-1.77.69-2.51,3.18-4.1,4.25a3.08,3.08,0,0,1-2.23.65c-3.12-.73-1.92-5.17-5.76-5.18a3.56,3.56,0,0,0-.72,1.22,3.18,3.18,0,0,0,.65,2.16,9.17,9.17,0,0,0,4.25,4.1,4.55,4.55,0,0,0,3.1.65,17.34,17.34,0,0,0,5.76-2.59c.51-.31,1.16-.38,1.66-.72,1.15,0,1.25.57,1.73,1.22a5.36,5.36,0,0,0,3,2.45,4.21,4.21,0,0,0,2.38-.36c2.37-.88,2.9-3.77,4.82-5.11.76-.53,2.21-.42,3.1-.79a9.5,9.5,0,0,0,1.8-1.37v-.14C346.34,61.47,344.26,61.48,342.07,61.27Z" transform="translate(-10.59 -16.92)"/></g></g></svg>